<?xml version="1.0" encoding="UTF-8"?>
<!-- Created with Inkscape (http://www.inkscape.org/) -->
<svg width="207.1mm" height="195.69mm" version="1.1" viewBox="0 0 207.1 195.69" xml:space="preserve" xmlns="http://www.w3.org/2000/svg"><g transform="translate(-402.16 -105.4)"><path d="m582.84 193.51c0.0773-0.19214 0.33252-0.39752 0.56712-0.4564 0.2346-0.0589 2.5922 0.0142 5.239 0.16243 15.633 0.87541 14.957 0.82583 15.283 1.1214 0.27758 0.25121 0.30806 0.49432 0.30806 2.4574v2.1786h2.1756c3.0927 0 2.8889-0.33385 2.8285 4.6342-0.0443 3.6381-0.067 3.9033-0.35274 4.112-0.22866 0.16704-0.85069 0.22313-2.4742 0.22313h-2.1687l-0.0435 2.3043c-0.0426 2.2546-0.052 2.3105-0.43693 2.5882-0.34005 0.24539-1.1937 0.32866-6.2943 0.61399-3.2455 0.18155-7.6951 0.43226-9.888 0.55713-4.1392 0.23571-4.4192 0.21256-4.7428-0.39203-0.20267-0.3787-0.2031-19.601-4.8e-4 -20.105zm1.4524 19.845c0.79944-0.0678 4.2275-0.26063 12.392-0.69705 3.3321-0.1781 6.2197-0.35777 6.4169-0.39927 0.3541-0.0745 0.35804-0.10152 0.31471-2.1563l-0.0439-2.0809-1.3157-0.046c-0.98159-0.0343-1.4097 0.0156-1.6861 0.1967-0.53512 0.35062-0.96669 0.29905-1.2614-0.15072-0.23916-0.365-0.23876-0.4224 5e-3 -0.79525 0.35458-0.54116 0.64456-0.62598 1.1061-0.32356 0.2835 0.18575 0.76672 0.25334 1.8113 0.25334h1.4247l-0.0844-7.3172-1.3157-0.046c-0.98159-0.0343-1.4097 0.0156-1.6861 0.1967-0.53512 0.35063-0.96669 0.29906-1.2614-0.15071-0.23916-0.365-0.23876-0.4224 5e-3 -0.79525 0.35458-0.54116 0.64456-0.62598 1.1061-0.32356 0.28336 0.18566 0.76648 0.25334 1.8084 0.25334h1.4218v-2.0457c0-1.2115-0.062-2.0456-0.15207-2.0456-0.19608 0-10.094-0.56557-15.19-0.86796-2.1637-0.12839-4.0579-0.23346-4.2093-0.23349-0.25932-6e-5 -0.27538 0.57223-0.27538 9.8155v9.8156zm21.991-6.199c1.5284 0 2.0472-0.0497 2.0516-0.1967 5e-3 -0.17402 2e-3 -6.7825-4e-3 -7.0811-1e-3 -0.0649-0.92272-0.11802-2.0478-0.11802h-2.0457v7.3958z"/><g transform="matrix(-.2442 .54229 -.54229 -.2442 699.56 89.846)" stroke-width="1.6814"><path d="m302.26 69.174c-0.31559-0.45056-0.41187-1.309-0.41187-3.6718 0-2.4183-0.0857-3.1548-0.39688-3.4131-0.88072-0.73094-0.11538-2.3812 1.1043-2.3812 0.60664 0 1.4092 0.77416 1.4092 1.3593 0 0.21539-0.17481 0.62273-0.38846 0.90521-0.28673 0.37911-0.39066 1.293-0.39687 3.4902l-8e-3 2.9766h12.7v-3.1594c0-1.8209-0.1121-3.2287-0.26458-3.3229-0.72485-0.44798 0.0459-2.2558 0.9552-2.2405 1.1189 0.01884 1.8854 1.2226 1.284 2.0164-0.26861 0.35452-0.37259 1.3651-0.3787 3.68-0.0122 4.6688 0.57089 4.3494-7.9412 4.3494-6.7826 0-6.8581-0.0061-7.2657-0.58804z"/><path d="m291.84 90.057c-0.54917-0.58455-0.57611-0.902-0.7493-8.8286-0.0988-4.5223-0.0952-8.4422 8e-3 -8.7111 0.10316-0.26884 0.17851-4.3724 0.16748-9.1191-0.0193-8.2808 3e-3 -8.6578 0.51559-9.3113 0.4699-0.59739 0.53568-1.0688 0.53568-3.8394 0-2.7238 0.0666-3.2187 0.48384-3.5963 0.43939-0.39764 2.0064-0.43788 17.051-0.43788h16.567l0.41188 0.58804c0.31414 0.44851 0.41188 1.3018 0.41188 3.5963 0 2.6076 0.0705 3.0978 0.52916 3.681 0.51689 0.65711 0.52917 1.0734 0.52917 17.932 0 17.06-6e-3 17.267-0.54837 17.956l-0.54838 0.69714h-34.794zm34.936-17.808c0.0385-9.4001 0.0103-17.169-0.0623-17.264-0.0728-0.09517-6.7105-0.17303-14.751-0.17303h-14.618l0.014 12.7 5.0123 5.2672v5.2227c0 5.0971-0.014 5.2326-0.58804 5.6346-0.47376 0.33183-1.4251 0.41188-4.8948 0.41188h-4.3068v2.4694c0 1.3582 0.0794 2.5488 0.17639 2.6458 0.097 0.09701 7.7749 0.17639 17.062 0.17639h16.885zm-25.965 5.5795-3e-3 -4.6924-1.7726-1.8361-1.7726-1.8361 0.15971 2.2628c0.14761 2.0919 0.11903 2.2846-0.37846 2.5508-0.4186 0.22403-0.64188 0.19411-1.0052-0.13473-0.39111-0.35392-0.44869-0.75571-0.35386-2.4685l0.11327-2.0458-3.4816 3.5139v9.305l4.1672 0.07287c2.292 0.04007 4.2033 0.05661 4.2474 0.03674 0.0441-0.01987 0.0795-2.1477 0.0785-4.7285zm-6.4509-8.6539 1.3974-1.38 1.8e-4 -6.4913 1.6e-4 -6.4913-3.043 0.07202-0.0701 7.8353c-0.0386 4.3094 0.0172 7.8353 0.12399 7.8353 0.10673 0 0.82288-0.62101 1.5914-1.38zm2.1232-17.009c1.054-0.58208 1.9172-1.2002 1.9182-1.3735 3e-3 -0.3675-4.2381-2.7547-4.5502-2.5618-0.25932 0.16027-0.28215 4.7015-0.0249 4.9587 0.26075 0.26074 0.49509 0.17048 2.657-1.0234zm24.835 0.54105c-1.215-0.74655-1.4738-1.0993-1.4792-2.0163-5e-3 -0.79588 0.73864-1.5475 2.3111-2.3367 0.61846-0.31042 1.1245-0.62151 1.1245-0.69132 0-0.0698-6.102-0.1232-13.56-0.11866l-13.56 0.0083 1.0583 0.6276c1.8495 1.0968 2.5135 1.7403 2.5135 2.4361 0 0.99102-0.439 1.6218-1.5295 2.1976l-0.98401 0.5196 25.135 0.0068-1.0303-0.63306zm4.6021-1.864c0-2.145-0.0631-2.5135-0.43045-2.5135-0.63992 0-4.3327 2.1039-4.3281 2.4659 4e-3 0.31272 3.8055 2.4906 4.4278 2.5367 0.2431 0.01799 0.33073-0.64157 0.33073-2.4891z"/></g><path d="m559.61 284.27c-0.42871-0.0338-0.5799-0.19465-4.479-4.7627l-4.0353-4.7277-0.58231 0.49702c-0.40785 0.34814-0.74019 0.50335-1.1094 0.51813l-0.5271 0.0211-1.5487-1.8181c-0.85187-0.99987-1.5597-1.9111-1.5732-2.0248-0.0658-0.55561 0.31974-0.97626 2.9601-3.2299l2.6966-2.3017-0.72407-0.3581c-1.7939-0.88721-2.7654-2.5078-2.3566-3.9312 0.30157-1.0501 1.1128-2.0358 1.8737-2.2764 0.72449-0.22917 2.1007 0.0624 3.2944 0.69808 0.78803 0.41959 1.2041 0.49608 0.92594 0.17024-0.28198-0.33036-0.67777-2.3542-0.61811-3.1606 0.0985-1.3318 0.67208-1.9272 2.2548-2.341 1.6442-0.42985 3.0485 0.4634 3.8423 2.444 0.2113 0.52723 0.40862 0.98722 0.43848 1.0222 0.0297 0.035 1.2872-0.98848 2.7939-2.2747 3.5253-3.009 3.1633-2.955 5.1306-0.76618 1.9623 2.1832 2.0784 2.6816 0.866 3.7163l-0.50307 0.42932 4.0192 4.6427 4.0192 4.6427-0.0434 0.5496-0.0434 0.54961-8.2639 7.0536c-8.1043 6.9174-8.2725 7.053-8.7076 7.0186zm2.1725-10.543-3.9842-4.6678-6.1041 5.2101 3.9161 4.588c2.1539 2.5234 3.9827 4.5933 4.064 4.5997 0.0813 6e-3 1.4853-1.1301 3.1201-2.5253l2.9722-2.537zm3.4709-2.9626-3.9842-4.6678-2.8725 2.4518 3.9161 4.588c2.1538 2.5234 3.9827 4.5933 4.064 4.5997 0.0813 6e-3 0.75831-0.50933 1.5044-1.1461l1.3565-1.1578zm6.7297-5.7442-3.9516-4.6957-6.104 5.2102 3.9872 4.6136c2.1929 2.5375 3.9993 4.6265 4.0141 4.6423 0.015 0.0156 1.3722-1.1196 3.0164-2.523l2.9895-2.5516zm-16.629 2.0973-1.4127-1.5815-3.5334 2.9582c-1.9434 1.627-3.608 3.052-3.6993 3.1668-0.14492 0.18209 8e-3 0.41252 1.2057 1.8156l1.3716 1.607 7.4809-6.3845-1.4127-1.5815zm4.4019-3.7634-1.3792-1.6158-1.8424 1.5725c-1.5696 1.3397-1.8292 1.6098-1.7534 1.8239 0.0489 0.13823 0.63686 0.89323 1.3065 1.6778l1.2176 1.4265 3.83-3.2691zm7.9571-6.9173c-1.2722-1.4905-1.4561-1.661-1.5685-1.4542-0.07 0.12883-1.7118 1.5866-3.6483 3.2396l-3.521 3.0053 1.3792 1.6158 1.3791 1.6158 7.4206-6.3339zm-12.417 6.2977c-0.29354-0.34392-2.0064-1.3968-2.833-1.7414-1.2677-0.52847-1.82-0.51537-2.4931 0.0592-0.70952 0.60557-1.0004 1.4596-0.79701 2.3395 0.17758 0.76805 0.93211 1.5027 2.1011 2.0458l0.85113 0.39542 1.6823-1.4359c1.5713-1.3412 1.6695-1.4509 1.4887-1.6626zm4.0263-4.2343c-0.46822-1.3243-1.0046-2.0701-1.7189-2.3901-0.72207-0.32346-1.6977-0.12448-2.4224 0.49408-0.43093 0.36779-0.52632 0.56429-0.55749 1.1482-0.0207 0.38747 0.0412 1.0233 0.13763 1.413 0.17012 0.68773 1.0547 2.7238 1.3167 3.0308 0.0989 0.11583 0.53881-0.19714 1.8486-1.3151l1.7189-1.4671z"/><g transform="matrix(.59321 -.042642 .042642 .59321 391.94 204.39)" stroke-width="1.6814"><path d="m214.47 162.87c-0.36298-0.21143-0.46215-0.62409-0.45897-1.9102 3e-3 -0.90227 0.0915-1.7687 0.19844-1.9255 0.31221-0.45767 6.2942-3.5515 6.8669-3.5515 0.913 0 1.3972 0.83944 1.3972 2.4221 0 1.7702-0.25786 2.044-3.4396 3.6531-1.2369 0.62552-2.3621 1.2409-2.5003 1.3675-0.33742 0.30904-1.4911 0.27798-2.0638-0.0556zm3.9021-2.5228c2.7868-1.475 2.8063-1.4921 2.7266-2.3868-0.0442-0.49565-0.14764-0.92845-0.22992-0.96179-0.0823-0.0333-1.3622 0.58837-2.8443 1.3816-2.6906 1.44-2.6946 1.4437-2.6946 2.4474 0 0.55287 0.0529 1.0052 0.11766 1.0052 0.0647 0 1.3808-0.66853 2.9246-1.4856z"/><path d="m201.96 173.08c-5.0932-2.8208-9.7962-5.4635-10.451-5.8727l-1.1906-0.74412-0.0692-10.42c-0.0479-7.2127 0.0193-10.527 0.21847-10.767 0.15827-0.19069 2.6302-1.6469 5.4932-3.2361 16.574-9.1998 15.86-8.8404 16.52-8.3166 0.18 0.14293 2.3514 1.366 4.8252 2.7179 2.4738 1.3519 4.9146 2.6918 5.424 2.9777 0.50933 0.28582 2.8906 1.5835 5.2917 2.8838 2.4011 1.3003 4.574 2.6083 4.8286 2.9067 0.42341 0.49621 0.46302 1.407 0.46302 10.649 0 7.6707-0.0797 10.214-0.33073 10.553-0.35663 0.48162-3.3017 2.1639-13.295 7.5944-1.1642 0.6326-3.3641 1.8434-4.8887 2.6906-1.5246 0.84721-2.9534 1.534-3.175 1.5262-0.22162-8e-3 -4.5702-2.3221-9.6634-5.1429zm8.8809-6.3627c-6e-3 -5.2049-0.0418-9.4859-0.0801-9.5132-0.0383-0.0273-1.0221-0.56617-2.1863-1.1975-1.1642-0.6313-3.1237-1.7218-4.3545-2.4233-1.2308-0.70149-2.3322-1.2754-2.4474-1.2754-0.11526 0-0.20955 1.6752-0.20955 3.7226 0 3.7091-3e-3 3.7223-0.59532 3.638-0.58197-0.0827-0.59827-0.17777-0.7276-4.2452l-0.13229-4.1606-4.0574-2.2555c-2.2316-1.2405-4.1663-2.2555-4.2995-2.2555-0.14189 0-0.24209 3.9262-0.24209 9.4874v9.4874l9.062 4.97c4.9841 2.7335 9.2929 5.129 9.5752 5.3232 0.28226 0.19426 0.55639 0.31 0.6092 0.25719 0.0528-0.0528 0.0913-4.3546 0.0856-9.5595zm4.0866 8.3624c0.97404-0.59175 1.8092-1.0759 1.8559-1.0759 0.0467 0 3.3218-1.7859 7.2781-3.9688 3.9562-2.1828 7.2991-3.9688 7.4286-3.9688s0.23718-0.23813 0.23916-0.52917c3e-3 -0.29104 4e-3 -4.5773 4e-3 -9.525 0-4.9477-3e-3 -9.1295-4e-3 -9.2928-3e-3 -0.20085-0.11067-0.21219-0.33435-0.035-0.1819 0.14407-0.98558 0.62355-1.7859 1.0655-0.80037 0.44196-4.9676 2.773-9.2604 5.18l-7.8052 4.3764-0.0695 9.569c-0.0594 8.1817-0.0148 9.5481 0.3066 9.4247 0.20685-0.0794 1.173-0.62847 2.147-1.2202zm-1.2398-20.089c2.2822-1.3203 4.7712-2.7196 11.366-6.39 2.9516-1.6427 5.3263-3.1075 5.2772-3.2552-0.11632-0.34891-7.6064-4.4058-8.1434-4.4107-0.22556-2e-3 -0.52322 0.10235-0.66146 0.23203-0.20587 0.19311-9.7376 5.2509-17.003 9.0226-0.91896 0.47702-1.5738 0.96372-1.4552 1.0816 0.39838 0.3959 8.1491 4.6975 8.5037 4.7196 0.19283 0.012 1.1453-0.43799 2.1167-0.99993zm-9.3688-6.2205c1.4675-0.78176 4.1564-2.2053 5.9754-3.1634 8.7847-4.6272 10.156-5.3801 10.226-5.6142 0.0782-0.26246-8.3177-4.8822-8.8729-4.8822-0.17402 0-2.4249 1.1706-5.0019 2.6015-4.7513 2.638-6.2888 3.4826-11.035 6.0626-1.4552 0.79094-2.7306 1.518-2.8341 1.6156-0.10356 0.0976 0.49175 0.54213 1.3229 0.98776 2.4179 1.2964 5.1505 2.8112 6.0091 3.3312 0.43656 0.26437 0.96229 0.48112 1.1683 0.48166 0.20598 5.3e-4 1.5752-0.63863 3.0427-1.4204z"/></g><path d="m481.34 299.77c-4.8186-2.5282-10.304-5.5545-10.477-5.7803-0.13478-0.17575-0.20478-0.90152-0.21688-2.2481l-0.0178-1.9886-0.81961-0.37361c-1.4924-0.68029-2.1843-1.1854-2.188-1.5973-2e-3 -0.20756 0.34396-1.0089 0.76849-1.7807 0.42454-0.77184 1.1377-2.0934 1.5847-2.9367 0.53516-1.0096 0.94731-1.5959 1.2065-1.7163 0.21652-0.10063 2.8712-1.5798 5.8992-3.2871 3.028-1.7073 5.6356-3.1053 5.7946-3.1066 0.15902-1e-3 1.143 0.45882 2.1867 1.0225 1.7317 0.93525 6.6835 3.6062 9.0134 4.8617 0.52182 0.2812 0.96689 0.55235 0.98904 0.60256 0.0706 0.16016 2.6795 4.7682 2.9969 5.2933 0.49205 0.81429 0.24294 1.2082-1.3178 2.0837l-1.3309 0.74663-0.0597 2.1189-0.0597 2.1189-1.0956 0.65615c-0.90052 0.53928-4.247 2.4323-10.051 5.6857-0.44746 0.25082-0.90592 0.45578-1.0188 0.45548-0.11286-1.5e-4 -0.91671-0.37384-1.7863-0.8301zm1.2928-4.9949c-0.0397-4.4278-0.12627-5.1473-0.50463-4.1957-0.0777 0.19544-0.58174 1.0674-1.1201 1.9378-0.81209 1.3129-1.0529 1.5916-1.414 1.6364-0.31434 0.0391-1.4812-0.48577-4.2022-1.89-2.0718-1.0692-3.8131-1.9436-3.8695-1.9431-0.20117 2e-3 -0.0839 3.1021 0.12353 3.265 0.10896 0.0855 1.728 0.97773 3.5978 1.9827 1.8698 1.0049 4.2536 2.2897 5.2973 2.8549 1.0437 0.56529 1.9505 1.0004 2.0151 0.96686 0.0646-0.0335 0.0991-2.1102 0.0766-4.6148zm6.4692 1.6429 5.4775-3.0784-0.0145-1.6128c-8e-3 -0.88708-0.0599-1.6124-0.11549-1.612-0.0555 5.3e-4 -0.95433 0.45983-1.9972 1.0207-1.0429 0.56089-2.7182 1.4611-3.7228 2.0005-1.0046 0.53937-1.9988 0.98221-2.2092 0.9841-0.48337 4e-3 -0.61971-0.15749-1.941-2.3037-0.59616-0.96834-1.1105-1.7604-1.143-1.7601-0.0325 3.1e-4 -0.04 2.1248-0.0168 4.7211 0.0233 2.5963 0.0789 4.7202 0.12361 4.7198 0.0447-4.1e-4 2.5461-1.386 5.5588-3.0792zm-8.1944-5.3729c0.74575-1.2878 1.3556-2.3835 1.3551-2.4349-6e-4 -0.0887-1.6477-1.0334-3.7172-2.1322-0.5218-0.27705-1.7671-0.95616-2.7674-1.5091-2.8451-1.5728-3.0458-1.6835-3.6977-2.0405-0.71417-0.39103-0.92644-0.34519-1.2311 0.26586-0.27132 0.54409-1.6589 3.0775-2.1166 3.8644-0.26329 0.45266-0.29062 0.60516-0.13145 0.73338 0.11053 0.089 1.1614 0.65149 2.3352 1.2499 1.1738 0.59843 3.5216 1.8184 5.2174 2.7111 1.6957 0.89265 3.154 1.6254 3.2406 1.6283 0.0866 3e-3 0.76758-1.0484 1.5133-2.3362zm9.6318 0.18302c6.4291-3.4479 6.7291-3.616 6.7903-3.8052 0.0705-0.21802-2.537-4.87-2.7834-4.9659-0.0948-0.0368-0.98756 0.39886-1.984 0.96825-0.99648 0.56939-2.1174 1.204-2.4909 1.4104-2.5767 1.4233-6.393 3.7-6.392 3.8132 1e-3 0.16796 2.7635 4.685 2.8641 4.6841 0.0398-3.3e-4 1.838-0.94754 3.996-2.1048zm-7.8184-9.3878c-0.0678-4.714-0.12417-5.8512-0.28819-5.8108-0.11212 0.0278-1.1198 0.57502-2.2392 1.2164s-2.916 1.6575-3.9925 2.258c-2.566 1.4314-4.0707 2.3134-4.0701 2.3856 5.8e-4 0.0659 0.57136 0.38791 3.7169 2.0968 1.2176 0.6615 3.2103 1.7624 4.4282 2.4464 1.2178 0.68401 2.2851 1.2493 2.3717 1.2562 0.10294 8e-3 0.12829-2.0176 0.0732-5.8486zm1.8423 5.1086c0.41206-0.23577 1.4537-0.83182 2.3148-1.3245 5.4501-3.1186 6.8095-3.9165 6.8033-3.9931-8e-3 -0.0928-9.8556-5.4267-10.017-5.4253-0.0534 4.7e-4 -0.0745 2.5146-0.0469 5.5869s0.083 5.5857 0.12322 5.5853c0.0402-3.8e-4 0.41024-0.19356 0.82232-0.42933z"/><path d="m450.81 256.39c0.16026 0.0988 2.2196 2.7915 4.5762 5.9838 3.5491 4.8074 4.2738 5.8778 4.2208 6.233-0.0532 0.35642-1.1342 1.2202-6.3953 5.1105l-6.3313 4.6816-1.4887-0.22212c-0.81879-0.12218-2.2243-0.28511-3.1234-0.36209l-1.6346-0.13996-0.67269 0.77629c-1.0668 1.2311-2.8026 2.4069-4.2308 2.8658-1.0437 0.3354-1.4486 0.38177-2.435 0.2789-1.0312-0.10757-1.2461-0.18052-1.6735-0.56919-0.26969-0.24518-0.60606-0.78466-0.74758-1.1988-0.2146-0.6284-0.21994-0.90203-0.0322-1.6531 0.27847-1.1144 1.0909-2.4046 2.1526-3.4186 0.81874-0.78195 2.4014-1.8228 2.8927-1.9024 0.2343-0.038 0.3505-0.49876 0.91787-3.6402l0.64961-3.5967 5.847-4.3779c7.197-5.3887 6.9215-5.2108 7.5083-4.849zm-6.6164 5.1809-6.0313 4.4697-0.47838 3.1106c-0.44905 2.92-0.46051 3.1104-0.18963 3.1072 0.15879-2e-3 0.76944 0.0258 1.357 0.0615s1.1147 0.01 1.1714-0.0571c0.19478-0.23046 1.0179 0.0136 1.2912 0.3828 0.63699 0.86042-0.33591 1.9619-1.2905 1.4611-0.2287-0.11998-0.46158-0.38505-0.51752-0.58904-0.12247-0.44661-0.55993-0.53966-1.7474-0.37165l-0.84216 0.11916-0.2194 1.4704-0.2194 1.4704 10.222 1.3345 6.0337-4.4505c3.3185-2.4478 6.0441-4.5205 6.0569-4.6061 0.0305-0.20455-8.2034-11.329-8.4079-11.359-0.0866-0.0129-2.8715 1.9879-6.1887 4.4462zm-9.4058 12.801c-1.711 1.1514-2.9268 2.7796-3.156 4.2264-0.1524 0.96214-8e-3 1.4169 0.58831 1.8471 1.0662 0.76983 3.341 0.3726 5.2594-0.91841 0.8862-0.59637 2.0989-1.7101 2.1365-1.9622 7e-3 -0.0488-0.7882-0.20826-1.7678-0.35441-2.1951-0.32753-2.2567-0.3972-1.9817-2.2403 0.0993-0.66576 0.11622-1.2201 0.0375-1.2318-0.0787-0.0117-0.58104 0.27337-1.1163 0.63357z"/><g transform="matrix(-.2442 -.54229 .54229 -.2442 267.39 253.93)" stroke-width="1.6814"><g stroke-width="1.6814"><path d="m-77.294 257.1c-0.44086-0.82375-0.35919-10.118 0.0943-10.739 0.31288-0.42788 0.43223-0.45051 0.79375-0.15047 0.36458 0.30257 0.42551 1.0987 0.42551 5.5595 0 3.6966-0.0921 5.2984-0.3175 5.5239-0.44365 0.44365-0.6793 0.39769-0.99611-0.19428z"/><path d="m-83.336 257.3c-0.48774-0.48775-0.44239-10.258 0.0507-10.933 0.31287-0.42788 0.43222-0.45051 0.79375-0.15047 0.36457 0.30257 0.4255 1.0987 0.4255 5.5595 0 4.9518-0.12087 5.8414-0.79375 5.8414-0.0873 0-0.30162-0.14288-0.47625-0.3175z"/><path d="m-89.448 257.25c-0.2103-0.25339-0.28076-1.9607-0.23084-5.5938 0.0643-4.6791 0.12134-5.2599 0.5424-5.5223 0.36425-0.22693 0.52771-0.2035 0.72355 0.10371 0.38647 0.60625 0.33516 10.668-0.0564 11.06-0.40977 0.40976-0.60738 0.40023-0.97872-0.0472z"/><path d="m-95.507 257.3c-0.22543-0.22543-0.3175-1.8272-0.3175-5.5239 0-4.4608 0.0609-5.2569 0.4255-5.5595 0.36153-0.30004 0.48088-0.27741 0.79375 0.15047 0.28185 0.38544 0.36825 1.6051 0.36825 5.1983 0 5.4311-0.28528 6.7193-1.27 5.7346z"/><path d="m-102.74 263.79c-0.86877-0.23061-0.87049-0.23907-3.5598-17.587l-0.72359-4.6676-1.0767-0.14442c-1.6162-0.21678-2.0082-0.87002-2.0082-3.3464 0-1.675 0.10068-2.1797 0.54837-2.7488l0.54837-0.69714h8.0316l4.3655-5.1772c2.401-2.8475 4.6081-5.4668 4.9046-5.8208 0.6545-0.78138 1.4453-0.85138 1.4453-0.12794 0 0.28362-1.9733 2.8546-4.3851 5.7132-2.4118 2.8586-4.3355 5.2471-4.2749 5.3076 0.0606 0.0606 6.008 0.0793 13.217 0.0415l13.106-0.0686-2.0185-2.4011c-1.1102-1.3206-3.1184-3.7018-4.4628-5.2917-1.3444-1.5898-2.4457-3.0432-2.4474-3.2296-2e-3 -0.18647 0.19697-0.41579 0.44144-0.50961 0.51272-0.19674 0.94965 0.26283 5.8378 6.1403 1.8154 2.1828 3.5862 4.2962 3.9352 4.6964l0.63453 0.72761h3.9168c5.0308 0 5.0768 0.0307 5.0709 3.3837-2e-3 1.2676-0.0915 2.4358-0.19844 2.5959-0.32808 0.49134-1.3088 0.8995-2.1614 0.8995-0.68086 0-0.81114 0.10247-0.81114 0.63796 0 0.56694-0.86942 6.5433-1.5815 10.871-0.14366 0.87312-0.56375 3.4925-0.93354 5.8208-0.54998 3.4629-0.77286 4.3176-1.2246 4.6964-0.51396 0.4309-1.7018 0.46089-17.126 0.43232-9.1153-0.0169-16.77-0.0829-17.01-0.14665zm33.377-1.2442c0-0.0542 0.71438-4.6632 1.5875-10.242 0.87313-5.579 1.5875-10.297 1.5875-10.485 0-0.27548-3.8016-0.34119-19.74-0.34119h-19.74l0.13907 0.59532c0.0765 0.32742 0.82187 5.0006 1.6564 10.385s1.6481 9.8771 1.8078 9.984c0.28672 0.19187 32.702 0.29487 32.702 0.10391zm6.2954-24.574-0.0777-1.9182h-45.508l-0.0777 1.9182-0.0777 1.9182h45.819z"/></g></g><g><path d="m420.04 216.93c-0.53503 0.4842-1.0702 0.33043-1.6949-0.48703-0.59921-0.78403-7.6162-11.384-7.6162-11.506 0-0.0385-0.17796-0.30328-0.39546-0.58844-0.35343-0.46335-0.48967-0.52349-1.2814-0.56561l-0.88599-0.0472-0.18519-0.73193c-0.36297-1.4346-1.1406-2.0835-2.4776-2.0673-1.2532 0.0151-2.2426 0.81661-2.4295 1.968-0.20689 1.275 0.3798 2.424 1.4704 2.8797 0.37747 0.15772 0.52779 0.31253 0.49097 0.50566-0.0817 0.42859-0.61379 0.41051-1.3151-0.0447-2.6245-1.7034-1.7717-5.6487 1.3282-6.1444 1.4773-0.23623 3.2213 0.85461 3.6491 2.2825 0.18234 0.60862 0.22651 0.64437 0.79629 0.64437h0.60325l4.1761-6.288c2.2969-3.4584 4.2852-6.397 4.4186-6.5304 0.32963-0.32963 1.0581-0.30561 1.3757 0.0453 0.23793 0.26291 0.26043 1.4164 0.26043 13.351 0 12.456-0.0134 13.075-0.28776 13.324zm-0.65707-26.176c-0.26699 0-8.534 12.587-8.457 12.876 0.0385 0.14479 1.3989 2.2814 3.0231 4.748 4.4836 6.8091 5.3106 8.0253 5.4572 8.0253 0.0741 0 0.13472-5.7711 0.13472-12.825 0-8.4812-0.0535-12.825-0.15804-12.825z"/><path d="m427.79 178.1-0.42673 0.21526-6.4158-2.8407c-4.4214-1.9577-6.4372-2.7932-6.4847-2.6878-0.0379 0.0841-0.0176 0.82649 0.045 1.6497 0.16639 2.186 0.0415 2.3421-1.9996 2.4993-3.0095 0.23183-3.903 0.26718-4.1332 0.16351-0.4079-0.18367-0.55879-0.82397-1.5816-6.7111l-0.39881-2.2955 0.77042-1.7109c0.42374-0.941 0.90645-1.8466 1.0727-2.0126 0.17019-0.16984 0.55123-0.29486 0.87193-0.28609 1.2343 0.0337 2.5125-0.70395 2.9664-1.712 0.45531-1.0111 0.19106-2.3096-0.69484-3.4142-0.23166-0.28884-0.41419-0.64818-0.40567-0.79852 9e-3 -0.15033 0.37698-1.076 0.81876-2.0571l0.80324-1.7838 2.468-1.518c4.988-3.0681 5.1554-3.1554 5.634-2.9399 0.28751 0.12947 3.2252 3.9439 3.4072 4.424 0.18693 0.49323-0.16819 0.97925-1.395 1.9092-0.64848 0.49157-1.2124 0.9679-1.2533 1.0585-0.0548 0.12159 1.5831 0.91107 6.2455 3.0106l6.3197 2.8458 0.1936 0.51077 0.19359 0.51078-3.0971 6.8778c-2.9527 6.5572-3.117 6.8878-3.5238 7.093zm-0.65535-17.104-6.4182-2.9312-0.12563-0.47711c-0.15833-0.60119 0.02-0.83052 1.5183-1.9517 0.64394-0.4819 1.1782-0.94936 1.1873-1.0388 0.022-0.21601-2.8667-3.9858-3.0371-3.9634-0.0729 0.01-1.2124 0.67353-2.5322 1.4755-1.3198 0.80194-2.8116 1.6996-3.3153 1.9949l-0.91579 0.53678-0.82627 1.8248-0.82627 1.8248 0.41345 0.51903c0.51519 0.64676 0.79471 1.456 0.83455 2.416 0.076 1.831-1.596 3.5399-3.5627 3.6423l-0.66207 0.0347-1.6175 3.592 0.67677 3.7066c0.37223 2.0386 0.71777 3.8151 0.76789 3.9476 0.069 0.18254 0.67366 0.19799 2.4943 0.0637 1.3218-0.0975 2.4508-0.22885 2.509-0.29196 0.0582-0.0631 0.0518-0.77058-0.0142-1.5722-0.15355-1.865-0.10008-2.1506 0.45495-2.4306l0.44047-0.22219 12.978 5.7474 2.9983-6.7579 2.9983-6.7579-6.4182-2.9312z"/><path d="m484.15 251.07c-0.78284-0.47734-1.9905-1.6115-2.6838-2.5204-1.7428-2.2849-1.8444-6.1031-0.22416-8.4218 0.60869-0.87103 1.3724-1.7472 1.6972-1.9469 0.93815-0.57701 0.73836-1.6995-1.8609-10.454-5.8764-19.793-10.748-36.412-12.366-42.19l-1.7452-6.231-5.2295-0.12703c-5.0532-0.12272-5.2344-0.16186-5.3763-1.1619l-0.14675-1.0348 12.481 0.25301 0.79081 2.4978c0.43495 1.3738 1.3525 4.3882 2.0389 6.6986l1.2481 4.2008h2.8804c1.5842 0 3.0336 0.0512 3.2209 0.11362 0.18733 0.0625 0.39544-1.5214 0.46247-3.5196 0.067-1.9982 0.21386-3.8886 0.32634-4.2008 0.13011-0.36109 1.1188-0.56768 2.7166-0.56768h2.512v-6.4942c0-4.4456 0.17192-6.6662 0.54497-7.0392 0.40558-0.40554 5.1589-0.54497 18.583-0.54497 9.9208 0 18.361 0.12409 18.756 0.27566 0.58064 0.22281 0.71836 1.051 0.71836 4.3201v4.0444l3.887-0.0546c2.1378-0.0301 4.0282 0.0863 4.2008 0.25855 0.17261 0.17226 0.36103 3.2086 0.41869 6.7475 0.0577 3.5389 0.10848 6.5366 0.11294 6.6615 5e-3 0.12496 1.1388 0.15672 2.5208 0.0707 2.7524-0.17129 4.4681 0.58123 4.9763 2.1826 0.17883 0.56343-1.487 6.8052-4.3364 16.248-3.6337 12.042-4.8638 15.552-5.731 16.355l-1.1042 1.0218h-22.455c-18.708 0-22.455 0.10384-22.455 0.62204 0 0.34214 0.38255 1.8238 0.85013 3.2925 0.46756 1.4688 0.99472 3.3347 1.1714 4.1465l0.32132 1.476h18.527c20.209 0 21.239 0.11328 23.533 2.5882 3.8155 4.117 2.7586 10.045-2.2582 12.666-1.3828 0.72246-4.766 0.84708-6.351 0.234-4.1701-1.6131-6.1441-7.0713-4.0024-11.067l0.90916-1.6963h-22.329l0.99806 1.6149c2.0863 3.3757 0.43431 8.9974-3.1956 10.875-1.8812 0.97282-5.8079 0.87372-7.5534-0.19061zm6.6011-2.0574c1.7276-0.89339 2.7697-2.6133 2.7697-4.5712 0-3.4669-2.2173-5.6702-5.7062-5.6702-1.7884 0-2.3373 0.23222-3.6491 1.5441-1.2599 1.2599-1.5441 1.891-1.5441 3.4286 0 4.6319 4.1544 7.3244 8.1297 5.2687zm35.095-0.53715c2.5927-2.3094 2.5345-6.2983-0.12461-8.5358-2.0867-1.7558-5.298-1.6611-7.1707 0.21158-1.6197 1.6197-2.1996 3.9912-1.4301 5.8489 0.56514 1.3644 2.0233 2.9043 3.1944 3.3736 1.2481 0.50016 4.5657-0.0385 5.5308-0.89839zm5.3235-34.114c1.5666-5.1829 3.6212-11.978 4.5659-15.1l1.7176-5.6768-31.617-0.22707c-17.389-0.12495-31.76-0.12495-31.934 0-0.17479 0.12496 1.4148 5.9493 3.5325 12.943 2.1177 6.9938 4.1656 13.789 4.5508 15.1l0.7005 2.3843h45.635zm-24.479-26.54v-3.0376l-24.978-0.0652v6.1406h24.978zm22.707-2.6391v-5.9038h-27.703v3.179h7.2251l0.2917 1.5549c0.16049 0.85515 0.22076 2.6909 0.13405 4.0795l-0.15757 2.5247 9.9911 0.13046c5.4952 0.0718 10.042 0.17737 10.105 0.23479 0.0625 0.0575 0.11347-2.5523 0.11347-5.7995zm-30.129-4.3144c0.0395-0.74932 0.0906-1.9207 0.11346-2.6031l0.0417-1.2407 21.572-0.2434 0.13526-2.8384 0.13525-2.8384h-33.877v11.378l11.808-0.25198 0.0718-1.3624z"/></g><g stroke-width="1.6814"><g transform="matrix(.45252 -.38593 .38593 .45252 175.74 104.4)"><path d="m323.68 346.48c-0.0771-0.20129-0.10927-6.0214-0.0714-12.934l0.0689-12.568 0.766-0.0874c1.1193-0.12777 2.8618 0.62841 3.9456 1.7122 1.6587 1.6587 1.7707 2.3756 1.7707 11.339v7.9752l-0.7276 1.4308c-0.90032 1.7704-2.6409 3.0899-4.3926 3.33-0.91212 0.12502-1.2546 0.0749-1.3596-0.19886zm2.9296-1.8345c0.48278-0.29837 1.1517-0.98298 1.4864-1.5214 0.60156-0.96742 0.60865-1.0761 0.60865-9.3132 0-7.9309-0.0265-8.3792-0.54348-9.2595-0.60307-1.0266-2.0471-2.1176-2.803-2.1176-0.46939 0-0.49003 0.47919-0.49003 11.377 0 12.643-0.10708 11.977 1.7414 10.835z"/><path d="m297.19 339.43c-0.70231-0.46894-0.8995-1.4852-0.8995-4.6354 0-4.0487 0.23529-4.8445 1.5461-5.2291 0.6296-0.18473 4.0298-0.25514 9.7374-0.20164 8.188 0.0767 8.8069 0.11562 9.3266 0.58621 0.51964 0.47056 0.55657 0.77348 0.55657 4.5641 0 3.7073-0.046 4.106-0.52916 4.5892-0.50959 0.50959-0.87911 0.52901-9.988 0.52512-5.2024-3e-3 -9.5898-0.0915-9.75-0.19844zm18.944-4.8246v-3.7042h-18.256v7.4083h18.256z"/><path d="m311.37 344.8c-0.26313-0.31705-0.26152-0.47863 8e-3 -0.80346 0.26556-0.32001 0.82119-0.39042 2.6091-0.33073 1.9797 0.0661 2.2839 0.13981 2.3668 0.57333 0.14301 0.74758-0.41441 0.94922-2.6365 0.95369-1.4749 3e-3 -2.1068-0.10276-2.3475-0.39283z"/><path d="m304.56 344.93c-0.66982-0.28448-0.74187-0.54668-0.27782-1.0107 0.49644-0.49644 4.5576-0.4226 4.9835 0.0906 0.26181 0.31546 0.26723 0.47953 0.0238 0.72289-0.3922 0.3922-3.9238 0.53949-4.7295 0.19725z"/><path d="m297.17 344.8c-0.39299-0.28733-0.41003-0.40476-0.1111-0.76496 0.27228-0.32806 0.85328-0.4255 2.5373-0.4255s2.265 0.0974 2.5373 0.4255c0.30004 0.36153 0.27739 0.48088-0.15063 0.79386-0.6441 0.47098-4.1581 0.44989-4.8129-0.0289z"/><path d="m311.4 348.92c-0.20312-0.13158-0.29615-0.42987-0.20674-0.66284 0.13343-0.34769 0.61769-0.42357 2.7028-0.42357 2.483 0 2.5383 0.0135 2.4557 0.59531-0.0792 0.55774-0.22651 0.59957-2.3335 0.66284-1.2369 0.0371-2.4151-0.0402-2.6182-0.17174z"/><path d="m304.25 348.92c-0.20312-0.12861-0.29615-0.42444-0.20674-0.65741 0.13335-0.3475 0.61685-0.42357 2.6927-0.42357s2.5593 0.0761 2.6927 0.42357c0.25659 0.66871-0.41577 0.89125-2.6927 0.89125-1.1642 0-2.2828-0.10522-2.486-0.23384z"/><path d="m297.11 348.92c-0.20312-0.12861-0.29615-0.42444-0.20674-0.65741 0.13335-0.3475 0.61685-0.42357 2.6927-0.42357s2.5593 0.0761 2.6927 0.42357c0.25659 0.66871-0.41577 0.89125-2.6927 0.89125-1.1642 0-2.2828-0.10522-2.486-0.23384z"/><path d="m311.19 352.71c-0.25662-0.66871 0.41505-0.89093 2.7059-0.8953 2.1435-4e-3 2.8511 0.25725 2.5836 0.95425-0.21984 0.57285-5.0678 0.51882-5.2896-0.0589z"/><path d="m304.06 352.75c-0.29009-0.75594 0.20222-0.93872 2.5285-0.93872 1.72 0 2.4173 0.10126 2.653 0.38529 0.59886 0.72157 0.0164 0.93763-2.5278 0.93763-1.947 0-2.5391-0.0857-2.6537-0.3842z"/><path d="m296.94 352.85c-0.0939-0.1519-0.0268-0.44956 0.1491-0.66146 0.48217-0.58103 4.8975-0.55044 5.1223 0.0354 0.0888 0.23143 0.0945 0.52909 0.0127 0.66146-0.20925 0.33861-5.073 0.30596-5.2841-0.0354z"/><path d="m292.85 358.69c-0.51892-0.51893-0.52916-0.88194-0.52916-18.744 0-17.173 0.0271-18.24 0.47405-18.644 0.37005-0.33488 1.1682-0.44545 3.638-0.50403l3.164-0.075 0.13229-4.4947c0.1216-4.1316 0.17248-4.5024 0.62976-4.5901 0.27361-0.0525 0.57126 0.0116 0.66146 0.14274 0.0902 0.13097 0.72337 0.74748 1.407 1.37l1.243 1.1319 1.615-1.344c0.8882-0.73919 1.801-1.344 2.0283-1.344 0.22736 0 1.1129 0.60597 1.9678 1.3466l1.5544 1.3466 1.5109-1.3466c1.5772-1.4057 2.2891-1.6539 2.5788-0.89895 0.0945 0.24622 0.15484 2.3 0.13415 4.5641l-0.0376 4.1164 2.7978 0.13229c2.1386 0.10113 2.9241 0.24077 3.3337 0.59272 0.52851 0.45403 0.53597 0.71205 0.53597 18.541v18.08l-0.61238 0.57528c-0.61225 0.57518-0.6146 0.57529-14.155 0.57529-13.19 0-13.557-0.0138-14.072-0.52917zm27.384-18.653v-17.727h-5.2652l0.0265 0.7276c0.0146 0.40019 0.0384 1.0779 0.0529 1.5062 0.0246 0.72183 0.10834 0.78446 1.1509 0.85989 0.92096 0.0666 1.1245 0.17714 1.1245 0.61053 0 0.46757-0.23101 0.54824-1.9844 0.69302-2.7721 0.22889-12.572 0.26501-15.701 0.0579-1.9063-0.12623-2.6432-0.27477-2.7505-0.55451-0.20778-0.54144 0.41069-0.84907 1.7164-0.85378l1.1245-4e-3v-3.175h-6.0854v35.724l26.591-0.1372v-17.727zm-6.7469-20.373c0-3.1287-0.0957-5.6885-0.21267-5.6885s-0.61658 0.41671-1.1102 0.92604c-0.49366 0.50932-1.0733 0.92604-1.2882 0.92604-0.21482 0-1.088-0.60664-1.9405-1.3481-1.7474-1.5198-1.6171-1.5334-3.7828 0.39537-1.266 1.1275-1.6872 1.1718-2.5336 0.26696-0.3528-0.37716-0.84979-0.79809-1.1044-0.93535-0.43437-0.23416-0.46302 0.10303-0.46302 5.4482v5.6979h12.435z"/></g><g transform="matrix(.57778 -.14103 .14103 .57778 358.5 -109.32)"><path d="m131.58 416.05c-0.0695-0.18817-0.15701-2.4853-0.19453-5.1046l-0.0682-4.7625-4.9715-0.072c-4.2415-0.0615-4.995-0.13335-5.1318-0.48972-0.0882-0.22974 6e-3 -0.52292 0.20899-0.65154 0.2031-0.12861 2.593-0.23566 5.311-0.23788l4.9417-4e-3 0.54838 0.69715c0.50948 0.64767 0.54837 1.0411 0.54837 5.5469 0 4.5909-0.0285 4.865-0.53308 5.1351-0.40246 0.2154-0.56407 0.20148-0.65942-0.0568z"/><path d="m91.942 416.19c-0.097-0.097-0.17639-2.5351-0.17639-5.4178 0-5.2154 3e-3 -5.2435 0.62414-5.6504 0.51813-0.33952 1.473-0.39672 5.6224-0.33685 4.7978 0.0693 4.9983 0.0933 4.9983 0.6013 0 0.50778-0.20038 0.53207-4.9609 0.60116l-4.9609 0.072v4.8361c0 3.4086-0.0937 4.9297-0.3175 5.1535-0.35969 0.35971-0.57398 0.39616-0.82903 0.14111z"/><path d="m119.99 430.21c-0.22042-0.22039-0.23542-15.237-0.0159-15.809 0.0883-0.23019 0.37325-0.41852 0.63315-0.41852s0.54483 0.18833 0.63315 0.41852c0.0883 0.23019 0.1606 3.7328 0.1606 7.7836s-0.0723 7.5534-0.1606 7.7836c-0.16182 0.42172-0.92345 0.5692-1.2505 0.24212z"/><path d="m115.97 430.07c-0.0746-0.19433-0.10398-3.8643-0.0653-8.1555 0.0684-7.6024 0.0838-7.8022 0.59942-7.8022 0.5176 0 0.52916 0.17639 0.52916 8.0662 0 7.477-0.0339 8.0727-0.46381 8.1555-0.25511 0.0491-0.52486-0.0697-0.59942-0.264z"/><path d="m111.78 429.58c-0.21465-1.0732-0.22135-14.615-7e-3 -15.173 0.24331-0.63407 1.1291-0.51337 1.2976 0.1768 0.08 0.32742 0.112 3.9886 0.0712 8.1359-0.0733 7.4483-0.081 7.5416-0.63369 7.6205-0.44234 0.0631-0.5947-0.0961-0.7276-0.76068z"/><path d="m107.82 430.21c-0.22041-0.22039-0.23541-15.237-0.0158-15.809 0.0883-0.23019 0.38599-0.41852 0.66146-0.41852 0.48065 0 0.50086 0.33092 0.50086 8.2021 0 7.7771-0.0251 8.2021-0.48507 8.2021-0.26679 0-0.56444-0.0794-0.66146-0.1764z"/><path d="m103.8 430.07c-0.0746-0.19433-0.10398-3.8643-0.0653-8.1555 0.0684-7.6024 0.0838-7.8022 0.59941-7.8022 0.51759 0 0.52916 0.17639 0.52916 8.0662 0 7.477-0.0339 8.0727-0.46382 8.1555-0.2551 0.0491-0.52484-0.0697-0.59941-0.264z"/><path d="m124.17 433.25c-0.0742-0.19344-0.10364-4.5778-0.0653-9.743 0.0681-9.1917 0.0809-9.3913 0.59878-9.3913 0.51951 0 0.52917 0.17639 0.52917 9.6537 0 8.99-0.0319 9.6598-0.46382 9.743-0.25511 0.0491-0.52456-0.0689-0.59878-0.26233z"/><path d="m99.599 433.15c-0.0883-0.23018-0.1606-4.4472-0.1606-9.3711 0-4.9239 0.0723-9.1409 0.1606-9.3711s0.37324-0.41852 0.63315-0.41852c0.2599 0 0.54482 0.18833 0.63315 0.41852 0.0883 0.23019 0.1606 4.4472 0.1606 9.3711 0 4.9239-0.0723 9.1409-0.1606 9.3711-0.0883 0.23019-0.37325 0.41852-0.63315 0.41852-0.25991 0-0.54482-0.18833-0.63315-0.41852z"/><path d="m121.43 441.52c-0.20312-0.12862-0.29715-0.4218-0.20899-0.65154 0.13673-0.35636 0.89027-0.42825 5.1318-0.48971l4.9715-0.072 0.0723-4.8878c0.0398-2.6883 0.18357-4.999 0.31951-5.1349 0.1532-0.15319 0.40238-0.11837 0.65527 0.0915 0.34044 0.28255 0.40809 1.1388 0.40809 5.1654 0 4.4824-0.0391 4.8764-0.54837 5.5238l-0.54838 0.69715-4.9417-4e-3c-2.718-3e-3 -5.1079-0.10928-5.311-0.23789z"/><path d="m92.3 441.24c-0.50007-0.50007-0.53486-0.8694-0.53486-5.6786 0-5.1819 0.12016-5.8438 0.93763-5.1654 0.31103 0.25813 0.38529 1.2314 0.38529 5.0498 0 2.6016 0.0298 4.753 0.0662 4.7811 0.0364 0.028 2.2688 0.11734 4.9609 0.19844 4.6693 0.14065 4.8948 0.17184 4.8948 0.67662 0 0.50831-0.20034 0.53199-5.0875 0.601-4.8044 0.0678-5.1173 0.0421-5.6224-0.46302z"/></g><g transform="matrix(.57778 .14103 -.14103 .57778 633.78 -113.3)"><path d="m-94.676 413.84c-0.0883-0.23019-0.0478-0.53134 0.0902-0.66926 0.1501-0.1501 3.4831-0.2226 8.3034-0.18064 7.8529 0.0684 8.0526 0.0832 8.0526 0.59926 0 0.51617-0.19971 0.53089-8.1428 0.59915-7.2224 0.0621-8.1609 0.0228-8.3034-0.34851z"/><path d="m-94.665 418.89c-0.33-0.85998 0.17994-0.93872 6.0799-0.93872 5.9262 0 6.6633 0.11145 6.3383 0.9583-0.21309 0.55528-12.205 0.53639-12.418-0.0196z"/><path d="m-93.524 424.39c-1.0638-0.12224-1.5852-0.76065-0.94982-1.163 0.2031-0.12861 3.9151-0.23566 8.2489-0.23788 6.9127-3e-3 7.8992 0.0468 8.0388 0.4106 0.3627 0.9452-0.28883 1.0397-7.3985 1.0733-3.8128 0.018-7.3856-0.0193-7.9394-0.083z"/><path d="m-94.511 429.19c-0.75431-0.9089 0.0502-1.0471 6.0943-1.0471 6.0443 0 6.8494 0.1383 6.0952 1.0471-0.2862 0.34486-1.2307 0.40809-6.0947 0.40809-4.864 0-5.8085-0.0632-6.0947-0.40809z"/><path d="m-94.186 442.91c-0.19017-0.0762-0.63124-0.42395-0.98016-0.77288-0.7362-0.7362-1.8598-0.8264-2.5471-0.20444-0.68192 0.61714-1.8268 0.53988-2.3949-0.16161-0.45154-0.55761-0.47901-1.5986-0.47901-18.149v-17.557l-6.2177-0.1491v-1.3229l20.273-0.0678c17.79-0.0595 20.314-0.019 20.604 0.33073 0.26392 0.318 0.2642 0.47868 1e-3 0.79539-0.25746 0.31022-0.98663 0.39687-3.3397 0.39687h-3.0103l-4e-3 17.661c-2e-3 9.7135-0.0915 17.792-0.19844 17.952-0.59752 0.89487-2.307 0.96861-2.8301 0.12208-0.30696-0.49668-1.4983-0.30014-2.3074 0.38063-1.4372 1.2093-2.8738 1.1963-4.0167-0.0362-0.86597-0.93393-1.7894-0.883-2.9824 0.16451-0.84377 0.74084-1.1155 0.83712-2.0204 0.71576-0.58368-0.0783-1.3538-0.42463-1.7435-0.78412-1.0501-0.96856-1.5193-1.0392-2.3446-0.35285-1.3678 1.1376-2.4236 1.4544-3.4618 1.0386zm2.38-1.9462c0.48192-0.44191 1.1441-0.87154 1.4715-0.95473 0.88955-0.226 1.686 0.0596 2.6622 0.95473 1.0912 1.0006 1.3931 1.0018 2.5235 9e-3 1.5484-1.3595 3.1437-1.2754 4.5133 0.23796 0.67585 0.74682 1.112 0.70163 2.1667-0.22444 1.2382-1.0872 2.5735-1.3033 3.5575-0.57576 0.41862 0.30948 0.88501 0.56271 1.0364 0.56271 0.1879 0 0.2753-5.5442 0.2753-17.462v-17.462h-25.665v17.315c0 11.942 0.0873 17.369 0.28125 17.488 0.15469 0.0956 0.48993-0.0151 0.74497-0.24582 1.1004-0.99584 2.8995-0.73078 4.1086 0.60531 0.68996 0.7624 1.2921 0.69832 2.3233-0.24722z"/></g><g transform="matrix(.45252 .38593 -.38593 .45252 629.4 -137.92)"><path d="m188.16 404.57c-0.0907-0.2363 0-0.5324 0.20543-0.66289 0.20309-0.1297 4.3579-0.20698 9.2328-0.17172 8.6658 0.0627 8.8635 0.0759 8.8635 0.59325 0 0.51753-0.1996 0.5307-9.0689 0.59881-8.1425 0.0625-9.0857 0.0259-9.2328-0.35745z"/><path d="m195.32 413.86c-0.0811-0.21132-0.0703-0.50898 0.0238-0.66146 0.11337-0.18343 2.8875-0.27725 8.1972-0.27725 6.5746 0 8.0512 0.0659 8.1658 0.36462 0.33629 0.87638-0.37719 0.95829-8.3466 0.95829-6.6562 0-7.916-0.0602-8.0403-0.3842z"/><path d="m195.4 422.29c-0.31155-0.31154-0.20915-1.1551 0.14385-1.1852 0.47887-0.0408 2.8931-0.0445 3.458-5e-3 0.34097 0.0238 0.45675 0.20714 0.39688 0.62878-0.0773 0.5443-0.24424 0.60187-1.9482 0.67193-1.025 0.0422-1.9477-7e-3 -2.0505-0.11022z"/><path d="m200.35 445.77c-1.2954-0.60314-2.1501-1.4461-2.6527-2.6164l-0.36931-0.85989h-2.7746c-4.1087 0-3.8329 0.60825-3.8329-8.4546v-7.3962l-1.7859-0.0782c-1.5835-0.0694-1.7859-0.13821-1.7859-0.6074 0-0.46942 0.20254-0.53803 1.7937-0.60759l1.7938-0.0784-0.074-3.3612-0.0739-3.3612-1.1389-0.0821c-2.012-0.14496-1.7643-1.3608 0.279-1.3691l0.99219-4e-3v-3.5527c0-5.1632-1.6618-4.6502 15.051-4.6458 7.5111 3e-3 13.91 0.0716 14.22 0.1547 0.91392 0.24527 1.1567 1.2376 1.1567 4.7273v3.2733l3.323 0.0877c3.007 0.0794 3.3655 0.14089 3.7703 0.64683 1.189 1.486 6.1172 7.6865 6.981 8.7832l0.97745 1.241 0.0148 6.5658c0.018 8.0179-0.01 8.107-2.5414 8.1145-1.3582 4e-3 -1.3686 0.0106-1.9503 1.2121-1.6995 3.5107-6.499 3.4833-8.2079-0.047l-0.56208-1.1611h-16.225l-0.53949 1.1193c-1.0805 2.242-3.7606 3.3241-5.8377 2.357zm3.1968-1.4051c0.37422-0.1705 0.92839-0.71126 1.2315-1.2017 1.5911-2.5745-1.2346-5.6708-4.0874-4.4788-1.2571 0.52522-1.7683 1.3639-1.7683 2.9008 0 1.1148 0.12245 1.413 0.89958 2.1901 0.72711 0.72711 1.1052 0.89959 1.9719 0.89959 0.58981 0 1.3785-0.13952 1.7528-0.31001zm25.625 0.0183c0.35227-0.16049 0.89644-0.74721 1.2092-1.3038 0.75071-1.3357 0.54219-2.828-0.54004-3.8648-0.65545-0.62799-0.9916-0.73837-2.2485-0.73837-1.3315 0-1.5535 0.0847-2.2414 0.85463-1.2667 1.4176-1.0007 3.952 0.51326 4.8912 0.81754 0.50718 2.3809 0.58336 3.3075 0.16116zm-31.617-4.4255c0.84241-2.8117 4.6758-3.9371 7.2957-2.1419 0.88098 0.60368 1.7449 1.976 1.7449 2.7718 0 0.33819 0.89405 0.38272 6.4587 0.32176l6.4587-0.0708 0.13073-15.28 0.1307-15.28h-27.731v6.6146l5.4901 4e-3c3.0196 3e-3 5.6563 0.10927 5.8594 0.23788 0.20312 0.12862 0.29705 0.42207 0.20878 0.65212-0.13813 0.35999-0.94538 0.42823-5.7932 0.48972l-5.6327 0.0714-0.0741 3.3734-0.0741 3.3734h3.1609c2.2908 0 3.1926 0.091 3.2762 0.33073 0.30247 0.86715-0.11023 0.99219-3.2746 0.99219h-3.1467v7.0996c0 3.9048 0.0794 7.179 0.1764 7.276 0.097 0.097 1.2688 0.1764 2.604 0.1764h2.4276l0.30355-1.0132zm25.445 0.53703c0-0.26191 0.31869-0.96769 0.70818-1.5684 1.7871-2.7561 6.3779-2.6782 7.959 0.13507 0.32626 0.58055 0.59323 1.2542 0.59323 1.497 0 0.36163 0.22735 0.42691 1.2568 0.36087l1.2568-0.0806 0.0707-6.3675 0.0707-6.3675-3.8796-4.7942-3.8796-4.7942-1.6151-0.16968c-0.88829-0.0933-2.2104-0.1307-2.938-0.0831l-1.3229 0.0866-0.0691 10.98c-0.038 6.039-0.0119 11.129 0.0578 11.311 0.0699 0.18198 0.48791 0.33088 0.92903 0.33088 0.59594 0 0.80206-0.12237 0.80206-0.47619z"/></g><g transform="matrix(.2442 .54229 -.54229 .2442 813.36 55.89)"><path d="m4.8773 421.59c-1.7763-1.0184-2.5054-3.2347-1.6246-4.9382 1.115-2.1562 3.7834-2.851 5.6072-1.4599 2.0155 1.5373 2.2459 3.935 0.55353 5.7611-1.2456 1.3441-2.8981 1.5761-4.5362 0.63696zm2.8624-1.0945c1.6023-0.66948 1.8794-3.0334 0.48422-4.1308-1.3209-1.039-3.4896-0.35959-3.8853 1.2173-0.28096 1.1194 0.31709 2.4889 1.2675 2.9024 1.0497 0.45675 1.0668 0.45683 2.1336 0.0111z"/><path d="m4.5386 431.29c-0.20015-0.52144 14.343-15.187 15.06-15.187 0.26695 0 0.46479 0.19786 0.46479 0.46479 0 0.52592-14.503 15.146-15.025 15.146-0.18551 0-0.41032-0.19032-0.49959-0.42294z"/><path d="m16.201 433.06c-2.3397-1.0626-3.0871-3.7354-1.5926-5.6957 2.0288-2.661 5.808-1.9052 6.7854 1.357 0.30107 1.0049 0.27419 1.2169-0.30135 2.3777-0.4788 0.96568-0.91793 1.4187-1.8124 1.8698-1.4212 0.7167-1.6844 0.72448-3.079 0.0912zm3.2138-1.7834c1.493-1.611 0.44762-4.0624-1.7324-4.0624-1.4894 0-2.3812 0.89188-2.3812 2.3812 0 1.4896 0.89184 2.3812 2.3819 2.3812 0.83127 0 1.2338-0.16272 1.7318-0.70009z"/><path d="m11.332 446.34c-0.21828-0.0814-0.94841-0.54806-1.6225-1.0371-1.9757-1.4334-2.651-1.6209-5.3513-1.4862-2.2134 0.11038-2.4959 0.0678-3.3262-0.50139-0.59-0.40449-1.3304-1.4086-2.117-2.871-1.1865-2.2058-1.2486-2.2693-3.2344-3.3073-1.1136-0.58209-2.2332-1.2369-2.488-1.4552-0.92286-0.79047-1.1812-1.9506-1.0006-4.4941l0.17062-2.4038-1.2476-1.826c-1.6029-2.346-1.8701-3.2859-1.3516-4.7553 0.21747-0.61634 0.7505-1.569 1.1845-2.117 1.2139-1.5326 1.4048-2.2697 1.2149-4.69-0.26533-3.3821 0.22644-4.1814 3.611-5.8697 1.8992-0.94737 1.9526-1.0022 3.1228-3.2065 0.79798-1.5031 1.496-2.4503 2.1167-2.8723 0.8574-0.58301 1.0986-0.61797 3.2543-0.47125 2.6256 0.17864 3.2386 7e-3 5.4784-1.5337 2.4015-1.6519 3.488-1.5992 6.2641 0.3043l1.8042 1.237 2.9568 0.0111c3.5996 0.0135 4.0213 0.24649 5.3776 2.9702 1.2224 2.4549 1.3776 2.6172 3.5457 3.709 1.021 0.51419 2.1887 1.2906 2.5949 1.7254 0.71798 0.76861 0.73853 0.87368 0.73853 3.7764v2.9858l0.92169 1.2857c2.3082 3.2197 2.3025 4.4631-0.0363 7.8631-0.86775 1.2615-0.8854 1.3432-0.88637 4.1017-1e-3 3.6469-0.27449 4.1348-3.1144 5.5628-2.4029 1.2082-2.5319 1.3395-3.7638 3.8315-1.3684 2.7682-1.9978 3.1106-5.5469 3.0183l-2.8027-0.0729-1.3499 0.96906c-2.395 1.7194-3.7221 2.1393-5.1172 1.6194zm2.7006-1.7329c0.53943-0.32502 1.5515-0.94814 2.249-1.3847 1.2094-0.75697 1.403-0.79375 4.1786-0.79375 1.6007 0 3.0622-0.0982 3.2477-0.21812 0.18553-0.11996 0.76351-1.0725 1.2844-2.1167 1.2527-2.5112 1.9779-3.2436 4.2423-4.284 1.0971-0.50409 2.0314-1.1253 2.2186-1.475 0.21984-0.41076 0.27421-1.3005 0.16985-2.7793-0.19084-2.7042 0.0319-3.5258 1.5341-5.6591 1.5475-2.1976 1.5446-2.7993-0.0241-5.0969-1.4574-2.1344-1.686-3.006-1.5001-5.7178 0.0882-1.2871 0.0298-2.2678-0.15563-2.6144-0.16325-0.30504-1.1611-0.96859-2.2174-1.4746-2.3984-1.1488-2.8954-1.6229-4.0191-3.8335-1.5163-2.9831-1.2636-2.8307-4.6934-2.8307-3.2805 0-2.6811 0.20106-6.5271-2.1894-1.2251-0.76145-2.0756-0.62463-3.7478 0.60285-2.0955 1.5382-3.0012 1.8056-5.4444 1.6074-2.9549-0.23977-3.3317-0.0483-4.4957 2.2846-1.2534 2.5122-1.9731 3.2439-4.2139 4.2844-1.0186 0.47297-1.9904 1.0292-2.1596 1.2361-0.18283 0.22368-0.34373 1.6633-0.39687 3.5512l-0.0894 3.175-1.2568 1.8167c-1.511 2.1841-1.5877 2.9831-0.44806 4.6656 1.6931 2.4996 1.8371 2.9566 1.8371 5.8277 0 1.4706 0.12214 2.902 0.27142 3.1809 0.14928 0.27892 1.165 0.94284 2.257 1.4754 2.2601 1.1021 2.9507 1.8153 4.2438 4.3831 1.1152 2.2145 1.5253 2.4151 4.4508 2.1778 2.3421-0.19002 3.3688 0.0803 4.9843 1.3125 1.1043 0.84232 2.3363 1.484 2.8426 1.4805 0.21828-3e-3 0.83822-0.26866 1.3776-0.5937z"/></g></g></g></svg>
